<mxfile host="app.diagrams.net" modified="2022-03-17T04:35:36.351Z" agent="5.0 (Windows NT 10.0; Win64; x64) AppleWebKit/537.36 (KHTML, like Gecko) Chrome/99.0.4844.51 Safari/537.36" etag="JCsv7_NaAs9uT6LifN5W" version="17.1.3" type="github">
  <diagram id="17ynz9xK-wG3ZcKPY0hF" name="Page-1">
    <mxGraphModel dx="868" dy="426" grid="1" gridSize="10" guides="1" tooltips="1" connect="1" arrows="1" fold="1" page="1" pageScale="1" pageWidth="827" pageHeight="1169" math="0" shadow="0">
      <root>
        <mxCell id="0" />
        <mxCell id="1" parent="0" />
        <mxCell id="5bHetLIwj-x24RkYb5Xe-1" value="" style="rounded=0;whiteSpace=wrap;html=1;" parent="1" vertex="1">
          <mxGeometry x="210" y="60" width="350" height="330" as="geometry" />
        </mxCell>
        <mxCell id="5bHetLIwj-x24RkYb5Xe-2" value="&lt;b&gt;&lt;font style=&quot;font-size: 16px&quot;&gt;Retention Change Report Request Form&lt;/font&gt;&lt;/b&gt;" style="text;html=1;strokeColor=none;fillColor=none;align=center;verticalAlign=middle;whiteSpace=wrap;rounded=0;" parent="1" vertex="1">
          <mxGeometry x="230" y="80" width="325" height="30" as="geometry" />
        </mxCell>
        <mxCell id="5bHetLIwj-x24RkYb5Xe-5" value="" style="rounded=0;whiteSpace=wrap;html=1;" parent="1" vertex="1">
          <mxGeometry x="240" y="140" width="300" height="30" as="geometry" />
        </mxCell>
        <mxCell id="5bHetLIwj-x24RkYb5Xe-6" value="" style="strokeWidth=2;html=1;shape=mxgraph.flowchart.merge_or_storage;whiteSpace=wrap;" parent="1" vertex="1">
          <mxGeometry x="515" y="150" width="15.84" height="10" as="geometry" />
        </mxCell>
        <mxCell id="5bHetLIwj-x24RkYb5Xe-8" value="Note" style="shape=note;size=20;whiteSpace=wrap;html=1;" parent="1" vertex="1">
          <mxGeometry y="205" width="100" height="100" as="geometry" />
        </mxCell>
        <mxCell id="5bHetLIwj-x24RkYb5Xe-10" value="" style="line;strokeWidth=1;direction=south;html=1;" parent="1" vertex="1">
          <mxGeometry x="500" y="140" width="10" height="30" as="geometry" />
        </mxCell>
        <mxCell id="5bHetLIwj-x24RkYb5Xe-12" value="&lt;font style=&quot;font-size: 14px&quot;&gt;Document Type&lt;/font&gt;" style="text;html=1;strokeColor=none;fillColor=none;align=center;verticalAlign=middle;whiteSpace=wrap;rounded=0;" parent="1" vertex="1">
          <mxGeometry x="325" y="140" width="120" height="30" as="geometry" />
        </mxCell>
        <mxCell id="5bHetLIwj-x24RkYb5Xe-13" value="&lt;font style=&quot;font-size: 14px&quot;&gt;Document Date From&lt;/font&gt;" style="rounded=0;whiteSpace=wrap;html=1;" parent="1" vertex="1">
          <mxGeometry x="240" y="190" width="300" height="30" as="geometry" />
        </mxCell>
        <mxCell id="5bHetLIwj-x24RkYb5Xe-15" value="&lt;font style=&quot;font-size: 14px&quot;&gt;Document Date To&lt;/font&gt;" style="rounded=0;whiteSpace=wrap;html=1;" parent="1" vertex="1">
          <mxGeometry x="240" y="240" width="300" height="30" as="geometry" />
        </mxCell>
        <mxCell id="5bHetLIwj-x24RkYb5Xe-17" value="&lt;font style=&quot;font-size: 14px&quot;&gt;Retention Change Date From&lt;/font&gt;" style="rounded=0;whiteSpace=wrap;html=1;" parent="1" vertex="1">
          <mxGeometry x="240" y="290" width="300" height="30" as="geometry" />
        </mxCell>
        <mxCell id="5bHetLIwj-x24RkYb5Xe-19" value="&lt;font style=&quot;font-size: 14px&quot;&gt;Retention Change Date To&lt;/font&gt;" style="rounded=0;whiteSpace=wrap;html=1;" parent="1" vertex="1">
          <mxGeometry x="240" y="340" width="300" height="30" as="geometry" />
        </mxCell>
        <mxCell id="NEzJr4G5pcf-ht8TO3Kb-11" value="" style="edgeStyle=orthogonalEdgeStyle;rounded=0;orthogonalLoop=1;jettySize=auto;html=1;" edge="1" parent="1" source="NEzJr4G5pcf-ht8TO3Kb-1" target="NEzJr4G5pcf-ht8TO3Kb-10">
          <mxGeometry relative="1" as="geometry" />
        </mxCell>
        <mxCell id="NEzJr4G5pcf-ht8TO3Kb-12" value="No" style="edgeLabel;html=1;align=center;verticalAlign=middle;resizable=0;points=[];" vertex="1" connectable="0" parent="NEzJr4G5pcf-ht8TO3Kb-11">
          <mxGeometry x="-0.2766" y="1" relative="1" as="geometry">
            <mxPoint as="offset" />
          </mxGeometry>
        </mxCell>
        <mxCell id="NEzJr4G5pcf-ht8TO3Kb-17" value="" style="edgeStyle=orthogonalEdgeStyle;rounded=0;orthogonalLoop=1;jettySize=auto;html=1;" edge="1" parent="1" source="NEzJr4G5pcf-ht8TO3Kb-1" target="NEzJr4G5pcf-ht8TO3Kb-16">
          <mxGeometry relative="1" as="geometry" />
        </mxCell>
        <mxCell id="NEzJr4G5pcf-ht8TO3Kb-18" value="Yes" style="edgeLabel;html=1;align=center;verticalAlign=middle;resizable=0;points=[];" vertex="1" connectable="0" parent="NEzJr4G5pcf-ht8TO3Kb-17">
          <mxGeometry x="-0.25" relative="1" as="geometry">
            <mxPoint as="offset" />
          </mxGeometry>
        </mxCell>
        <mxCell id="NEzJr4G5pcf-ht8TO3Kb-1" value="Supplier Name exist ?" style="rhombus;whiteSpace=wrap;html=1;" vertex="1" parent="1">
          <mxGeometry x="110" y="570" width="100" height="100" as="geometry" />
        </mxCell>
        <mxCell id="NEzJr4G5pcf-ht8TO3Kb-259" style="edgeStyle=orthogonalEdgeStyle;rounded=0;orthogonalLoop=1;jettySize=auto;html=1;exitX=1;exitY=0.5;exitDx=0;exitDy=0;entryX=1;entryY=0.5;entryDx=0;entryDy=0;" edge="1" parent="1" source="NEzJr4G5pcf-ht8TO3Kb-10" target="NEzJr4G5pcf-ht8TO3Kb-25">
          <mxGeometry relative="1" as="geometry">
            <Array as="points">
              <mxPoint x="430" y="620" />
              <mxPoint x="430" y="1130" />
            </Array>
          </mxGeometry>
        </mxCell>
        <mxCell id="NEzJr4G5pcf-ht8TO3Kb-10" value="Transit to Unknown Document queue" style="whiteSpace=wrap;html=1;fillColor=#e1d5e7;strokeColor=#9673a6;" vertex="1" parent="1">
          <mxGeometry x="304" y="590" width="120" height="60" as="geometry" />
        </mxCell>
        <mxCell id="NEzJr4G5pcf-ht8TO3Kb-14" style="edgeStyle=orthogonalEdgeStyle;rounded=0;orthogonalLoop=1;jettySize=auto;html=1;entryX=0.5;entryY=0;entryDx=0;entryDy=0;" edge="1" parent="1" source="NEzJr4G5pcf-ht8TO3Kb-13" target="NEzJr4G5pcf-ht8TO3Kb-1">
          <mxGeometry relative="1" as="geometry" />
        </mxCell>
        <mxCell id="NEzJr4G5pcf-ht8TO3Kb-13" value="Start" style="ellipse;whiteSpace=wrap;html=1;fillColor=#fff2cc;strokeColor=#d6b656;" vertex="1" parent="1">
          <mxGeometry x="100" y="420" width="120" height="80" as="geometry" />
        </mxCell>
        <mxCell id="NEzJr4G5pcf-ht8TO3Kb-20" value="" style="edgeStyle=orthogonalEdgeStyle;rounded=0;orthogonalLoop=1;jettySize=auto;html=1;" edge="1" parent="1" source="NEzJr4G5pcf-ht8TO3Kb-16" target="NEzJr4G5pcf-ht8TO3Kb-19">
          <mxGeometry relative="1" as="geometry" />
        </mxCell>
        <mxCell id="NEzJr4G5pcf-ht8TO3Kb-21" value="Yes" style="edgeLabel;html=1;align=center;verticalAlign=middle;resizable=0;points=[];" vertex="1" connectable="0" parent="NEzJr4G5pcf-ht8TO3Kb-20">
          <mxGeometry x="-0.22" y="-3" relative="1" as="geometry">
            <mxPoint as="offset" />
          </mxGeometry>
        </mxCell>
        <mxCell id="NEzJr4G5pcf-ht8TO3Kb-23" value="" style="edgeStyle=orthogonalEdgeStyle;rounded=0;orthogonalLoop=1;jettySize=auto;html=1;" edge="1" parent="1" source="NEzJr4G5pcf-ht8TO3Kb-16" target="NEzJr4G5pcf-ht8TO3Kb-22">
          <mxGeometry relative="1" as="geometry" />
        </mxCell>
        <mxCell id="NEzJr4G5pcf-ht8TO3Kb-24" value="No" style="edgeLabel;html=1;align=center;verticalAlign=middle;resizable=0;points=[];" vertex="1" connectable="0" parent="NEzJr4G5pcf-ht8TO3Kb-23">
          <mxGeometry x="-0.2444" relative="1" as="geometry">
            <mxPoint as="offset" />
          </mxGeometry>
        </mxCell>
        <mxCell id="NEzJr4G5pcf-ht8TO3Kb-16" value="Supplier Name &lt;br&gt;and Owner match one &lt;br&gt;of the entries in the Mapping List?" style="rhombus;whiteSpace=wrap;html=1;" vertex="1" parent="1">
          <mxGeometry x="75" y="720" width="170" height="121.43" as="geometry" />
        </mxCell>
        <mxCell id="NEzJr4G5pcf-ht8TO3Kb-26" value="" style="edgeStyle=orthogonalEdgeStyle;rounded=0;orthogonalLoop=1;jettySize=auto;html=1;" edge="1" parent="1" source="NEzJr4G5pcf-ht8TO3Kb-19" target="NEzJr4G5pcf-ht8TO3Kb-25">
          <mxGeometry relative="1" as="geometry" />
        </mxCell>
        <mxCell id="NEzJr4G5pcf-ht8TO3Kb-19" value="Look up the first matching entry in the Mapping list based on Supplier Name and Owner, then auto fill Supplier Code and Set of Book" style="whiteSpace=wrap;html=1;" vertex="1" parent="1">
          <mxGeometry x="100" y="910" width="120" height="110" as="geometry" />
        </mxCell>
        <mxCell id="NEzJr4G5pcf-ht8TO3Kb-28" style="edgeStyle=orthogonalEdgeStyle;rounded=0;orthogonalLoop=1;jettySize=auto;html=1;exitX=0.5;exitY=1;exitDx=0;exitDy=0;entryX=0.5;entryY=0;entryDx=0;entryDy=0;" edge="1" parent="1" source="NEzJr4G5pcf-ht8TO3Kb-22" target="NEzJr4G5pcf-ht8TO3Kb-25">
          <mxGeometry relative="1" as="geometry">
            <Array as="points">
              <mxPoint x="380" y="1100" />
            </Array>
          </mxGeometry>
        </mxCell>
        <mxCell id="NEzJr4G5pcf-ht8TO3Kb-22" value="Highlight Supplier Code and Set of Book&amp;nbsp;" style="whiteSpace=wrap;html=1;fillColor=#f8cecc;strokeColor=#b85450;" vertex="1" parent="1">
          <mxGeometry x="320" y="750.71" width="120" height="60" as="geometry" />
        </mxCell>
        <mxCell id="NEzJr4G5pcf-ht8TO3Kb-25" value="End" style="ellipse;whiteSpace=wrap;html=1;fillColor=#fff2cc;strokeColor=#d6b656;" vertex="1" parent="1">
          <mxGeometry x="100" y="1100" width="120" height="60" as="geometry" />
        </mxCell>
        <mxCell id="NEzJr4G5pcf-ht8TO3Kb-66" value="" style="edgeStyle=orthogonalEdgeStyle;rounded=0;orthogonalLoop=1;jettySize=auto;html=1;" edge="1" parent="1" source="NEzJr4G5pcf-ht8TO3Kb-70" target="NEzJr4G5pcf-ht8TO3Kb-72">
          <mxGeometry relative="1" as="geometry" />
        </mxCell>
        <mxCell id="NEzJr4G5pcf-ht8TO3Kb-67" value="No" style="edgeLabel;html=1;align=center;verticalAlign=middle;resizable=0;points=[];" vertex="1" connectable="0" parent="NEzJr4G5pcf-ht8TO3Kb-66">
          <mxGeometry x="-0.2766" y="1" relative="1" as="geometry">
            <mxPoint as="offset" />
          </mxGeometry>
        </mxCell>
        <mxCell id="NEzJr4G5pcf-ht8TO3Kb-68" value="" style="edgeStyle=orthogonalEdgeStyle;rounded=0;orthogonalLoop=1;jettySize=auto;html=1;" edge="1" parent="1" source="NEzJr4G5pcf-ht8TO3Kb-70" target="NEzJr4G5pcf-ht8TO3Kb-79">
          <mxGeometry relative="1" as="geometry" />
        </mxCell>
        <mxCell id="NEzJr4G5pcf-ht8TO3Kb-69" value="Yes" style="edgeLabel;html=1;align=center;verticalAlign=middle;resizable=0;points=[];" vertex="1" connectable="0" parent="NEzJr4G5pcf-ht8TO3Kb-68">
          <mxGeometry x="-0.25" relative="1" as="geometry">
            <mxPoint as="offset" />
          </mxGeometry>
        </mxCell>
        <mxCell id="NEzJr4G5pcf-ht8TO3Kb-70" value="Supplier Name exist ?" style="rhombus;whiteSpace=wrap;html=1;" vertex="1" parent="1">
          <mxGeometry x="497" y="570" width="100" height="100" as="geometry" />
        </mxCell>
        <mxCell id="NEzJr4G5pcf-ht8TO3Kb-258" style="edgeStyle=orthogonalEdgeStyle;rounded=0;orthogonalLoop=1;jettySize=auto;html=1;entryX=1;entryY=0.5;entryDx=0;entryDy=0;" edge="1" parent="1" source="NEzJr4G5pcf-ht8TO3Kb-72" target="NEzJr4G5pcf-ht8TO3Kb-118">
          <mxGeometry relative="1" as="geometry">
            <Array as="points">
              <mxPoint x="1130" y="620" />
              <mxPoint x="1130" y="1390" />
            </Array>
          </mxGeometry>
        </mxCell>
        <mxCell id="NEzJr4G5pcf-ht8TO3Kb-72" value="Transit to Unknown Document queue" style="whiteSpace=wrap;html=1;fillColor=#e1d5e7;strokeColor=#9673a6;" vertex="1" parent="1">
          <mxGeometry x="691" y="590" width="120" height="60" as="geometry" />
        </mxCell>
        <mxCell id="NEzJr4G5pcf-ht8TO3Kb-73" style="edgeStyle=orthogonalEdgeStyle;rounded=0;orthogonalLoop=1;jettySize=auto;html=1;entryX=0.5;entryY=0;entryDx=0;entryDy=0;" edge="1" parent="1" source="NEzJr4G5pcf-ht8TO3Kb-74" target="NEzJr4G5pcf-ht8TO3Kb-70">
          <mxGeometry relative="1" as="geometry" />
        </mxCell>
        <mxCell id="NEzJr4G5pcf-ht8TO3Kb-74" value="Start" style="ellipse;whiteSpace=wrap;html=1;fillColor=#fff2cc;strokeColor=#d6b656;" vertex="1" parent="1">
          <mxGeometry x="487" y="420" width="120" height="80" as="geometry" />
        </mxCell>
        <mxCell id="NEzJr4G5pcf-ht8TO3Kb-95" value="" style="edgeStyle=orthogonalEdgeStyle;rounded=0;orthogonalLoop=1;jettySize=auto;html=1;entryX=0.5;entryY=0;entryDx=0;entryDy=0;" edge="1" parent="1" source="NEzJr4G5pcf-ht8TO3Kb-79" target="NEzJr4G5pcf-ht8TO3Kb-97">
          <mxGeometry relative="1" as="geometry">
            <mxPoint x="547" y="899.2850000000001" as="targetPoint" />
          </mxGeometry>
        </mxCell>
        <mxCell id="NEzJr4G5pcf-ht8TO3Kb-96" value="Yes" style="edgeLabel;html=1;align=center;verticalAlign=middle;resizable=0;points=[];" vertex="1" connectable="0" parent="NEzJr4G5pcf-ht8TO3Kb-95">
          <mxGeometry x="-0.2258" y="1" relative="1" as="geometry">
            <mxPoint as="offset" />
          </mxGeometry>
        </mxCell>
        <mxCell id="NEzJr4G5pcf-ht8TO3Kb-110" value="" style="edgeStyle=orthogonalEdgeStyle;rounded=0;orthogonalLoop=1;jettySize=auto;html=1;" edge="1" parent="1" source="NEzJr4G5pcf-ht8TO3Kb-79" target="NEzJr4G5pcf-ht8TO3Kb-109">
          <mxGeometry relative="1" as="geometry" />
        </mxCell>
        <mxCell id="NEzJr4G5pcf-ht8TO3Kb-111" value="No" style="edgeLabel;html=1;align=center;verticalAlign=middle;resizable=0;points=[];" vertex="1" connectable="0" parent="NEzJr4G5pcf-ht8TO3Kb-110">
          <mxGeometry x="-0.2727" y="1" relative="1" as="geometry">
            <mxPoint as="offset" />
          </mxGeometry>
        </mxCell>
        <mxCell id="NEzJr4G5pcf-ht8TO3Kb-79" value="Supplier Name &lt;br&gt;and Owner match one &lt;br&gt;of the entries in the Mapping List?" style="rhombus;whiteSpace=wrap;html=1;" vertex="1" parent="1">
          <mxGeometry x="462" y="720" width="170" height="121.43" as="geometry" />
        </mxCell>
        <mxCell id="NEzJr4G5pcf-ht8TO3Kb-90" style="edgeStyle=orthogonalEdgeStyle;rounded=0;orthogonalLoop=1;jettySize=auto;html=1;exitX=0.5;exitY=1;exitDx=0;exitDy=0;entryX=0.5;entryY=0;entryDx=0;entryDy=0;" edge="1" parent="1" source="NEzJr4G5pcf-ht8TO3Kb-86" target="NEzJr4G5pcf-ht8TO3Kb-89">
          <mxGeometry relative="1" as="geometry" />
        </mxCell>
        <mxCell id="NEzJr4G5pcf-ht8TO3Kb-252" value="Yes" style="edgeLabel;html=1;align=center;verticalAlign=middle;resizable=0;points=[];" vertex="1" connectable="0" parent="NEzJr4G5pcf-ht8TO3Kb-90">
          <mxGeometry x="-0.2377" y="1" relative="1" as="geometry">
            <mxPoint as="offset" />
          </mxGeometry>
        </mxCell>
        <mxCell id="NEzJr4G5pcf-ht8TO3Kb-256" style="edgeStyle=orthogonalEdgeStyle;rounded=0;orthogonalLoop=1;jettySize=auto;html=1;entryX=-0.008;entryY=0.633;entryDx=0;entryDy=0;entryPerimeter=0;" edge="1" parent="1" source="NEzJr4G5pcf-ht8TO3Kb-86" target="NEzJr4G5pcf-ht8TO3Kb-118">
          <mxGeometry relative="1" as="geometry">
            <Array as="points">
              <mxPoint x="440" y="1130" />
              <mxPoint x="440" y="1398" />
            </Array>
          </mxGeometry>
        </mxCell>
        <mxCell id="NEzJr4G5pcf-ht8TO3Kb-257" value="No" style="edgeLabel;html=1;align=center;verticalAlign=middle;resizable=0;points=[];" vertex="1" connectable="0" parent="NEzJr4G5pcf-ht8TO3Kb-256">
          <mxGeometry x="-0.5298" relative="1" as="geometry">
            <mxPoint as="offset" />
          </mxGeometry>
        </mxCell>
        <mxCell id="NEzJr4G5pcf-ht8TO3Kb-86" value="Owner is Gulf Oil Marine Limited or Gulf Oil Marine Ltd Singapore Branch?" style="rhombus;whiteSpace=wrap;html=1;" vertex="1" parent="1">
          <mxGeometry x="462" y="1069.29" width="170" height="121.43" as="geometry" />
        </mxCell>
        <mxCell id="NEzJr4G5pcf-ht8TO3Kb-119" style="edgeStyle=orthogonalEdgeStyle;rounded=0;orthogonalLoop=1;jettySize=auto;html=1;entryX=0.5;entryY=0;entryDx=0;entryDy=0;" edge="1" parent="1" source="NEzJr4G5pcf-ht8TO3Kb-89" target="NEzJr4G5pcf-ht8TO3Kb-118">
          <mxGeometry relative="1" as="geometry" />
        </mxCell>
        <mxCell id="NEzJr4G5pcf-ht8TO3Kb-89" value="Update Set of Book to SG" style="rounded=0;whiteSpace=wrap;html=1;" vertex="1" parent="1">
          <mxGeometry x="487" y="1250" width="120" height="60" as="geometry" />
        </mxCell>
        <mxCell id="NEzJr4G5pcf-ht8TO3Kb-98" style="edgeStyle=orthogonalEdgeStyle;rounded=0;orthogonalLoop=1;jettySize=auto;html=1;exitX=0.5;exitY=1;exitDx=0;exitDy=0;entryX=0.5;entryY=0;entryDx=0;entryDy=0;" edge="1" parent="1" source="NEzJr4G5pcf-ht8TO3Kb-97" target="NEzJr4G5pcf-ht8TO3Kb-86">
          <mxGeometry relative="1" as="geometry" />
        </mxCell>
        <mxCell id="NEzJr4G5pcf-ht8TO3Kb-97" value="Look up the first matching entry in the Mapping list based on Supplier Name and Owner, then auto fill Supplier Code and Set of Book" style="whiteSpace=wrap;html=1;" vertex="1" parent="1">
          <mxGeometry x="487" y="910" width="120" height="110" as="geometry" />
        </mxCell>
        <mxCell id="NEzJr4G5pcf-ht8TO3Kb-115" value="" style="edgeStyle=orthogonalEdgeStyle;rounded=0;orthogonalLoop=1;jettySize=auto;html=1;" edge="1" parent="1" source="NEzJr4G5pcf-ht8TO3Kb-109" target="NEzJr4G5pcf-ht8TO3Kb-114">
          <mxGeometry relative="1" as="geometry" />
        </mxCell>
        <mxCell id="NEzJr4G5pcf-ht8TO3Kb-116" value="Yes" style="edgeLabel;html=1;align=center;verticalAlign=middle;resizable=0;points=[];" vertex="1" connectable="0" parent="NEzJr4G5pcf-ht8TO3Kb-115">
          <mxGeometry x="-0.3038" relative="1" as="geometry">
            <mxPoint as="offset" />
          </mxGeometry>
        </mxCell>
        <mxCell id="NEzJr4G5pcf-ht8TO3Kb-123" value="" style="edgeStyle=orthogonalEdgeStyle;rounded=0;orthogonalLoop=1;jettySize=auto;html=1;" edge="1" parent="1" source="NEzJr4G5pcf-ht8TO3Kb-109" target="NEzJr4G5pcf-ht8TO3Kb-122">
          <mxGeometry relative="1" as="geometry" />
        </mxCell>
        <mxCell id="NEzJr4G5pcf-ht8TO3Kb-124" value="No" style="edgeLabel;html=1;align=center;verticalAlign=middle;resizable=0;points=[];" vertex="1" connectable="0" parent="NEzJr4G5pcf-ht8TO3Kb-123">
          <mxGeometry x="-0.2" relative="1" as="geometry">
            <mxPoint as="offset" />
          </mxGeometry>
        </mxCell>
        <mxCell id="NEzJr4G5pcf-ht8TO3Kb-109" value="Owner is Gulf Oil Marine Limited or Gulf Oil Marine Ltd Singapore Branch or unknown(not in the Owner List)?" style="rhombus;whiteSpace=wrap;html=1;" vertex="1" parent="1">
          <mxGeometry x="720" y="720" width="170" height="121.43" as="geometry" />
        </mxCell>
        <mxCell id="NEzJr4G5pcf-ht8TO3Kb-120" style="edgeStyle=orthogonalEdgeStyle;rounded=0;orthogonalLoop=1;jettySize=auto;html=1;entryX=0.5;entryY=0;entryDx=0;entryDy=0;" edge="1" parent="1" source="NEzJr4G5pcf-ht8TO3Kb-114" target="NEzJr4G5pcf-ht8TO3Kb-117">
          <mxGeometry relative="1" as="geometry" />
        </mxCell>
        <mxCell id="NEzJr4G5pcf-ht8TO3Kb-114" value="&lt;span&gt;Update Set of Book to SG&lt;/span&gt;" style="whiteSpace=wrap;html=1;" vertex="1" parent="1">
          <mxGeometry x="745" y="909.9950000000001" width="120" height="60" as="geometry" />
        </mxCell>
        <mxCell id="NEzJr4G5pcf-ht8TO3Kb-121" style="edgeStyle=orthogonalEdgeStyle;rounded=0;orthogonalLoop=1;jettySize=auto;html=1;exitX=0.5;exitY=1;exitDx=0;exitDy=0;entryX=0.5;entryY=0;entryDx=0;entryDy=0;" edge="1" parent="1" source="NEzJr4G5pcf-ht8TO3Kb-117" target="NEzJr4G5pcf-ht8TO3Kb-118">
          <mxGeometry relative="1" as="geometry">
            <Array as="points">
              <mxPoint x="805" y="1360" />
            </Array>
          </mxGeometry>
        </mxCell>
        <mxCell id="NEzJr4G5pcf-ht8TO3Kb-117" value="Highlight Supplier Code" style="whiteSpace=wrap;html=1;fillColor=#f8cecc;strokeColor=#b85450;" vertex="1" parent="1">
          <mxGeometry x="745" y="1040" width="120" height="60" as="geometry" />
        </mxCell>
        <mxCell id="NEzJr4G5pcf-ht8TO3Kb-118" value="End" style="ellipse;whiteSpace=wrap;html=1;fillColor=#fff2cc;strokeColor=#d6b656;" vertex="1" parent="1">
          <mxGeometry x="487" y="1360" width="120" height="60" as="geometry" />
        </mxCell>
        <mxCell id="NEzJr4G5pcf-ht8TO3Kb-125" style="edgeStyle=orthogonalEdgeStyle;rounded=0;orthogonalLoop=1;jettySize=auto;html=1;entryX=0.5;entryY=0;entryDx=0;entryDy=0;" edge="1" parent="1" source="NEzJr4G5pcf-ht8TO3Kb-122" target="NEzJr4G5pcf-ht8TO3Kb-117">
          <mxGeometry relative="1" as="geometry">
            <Array as="points">
              <mxPoint x="1055" y="1010" />
              <mxPoint x="805" y="1010" />
            </Array>
          </mxGeometry>
        </mxCell>
        <mxCell id="NEzJr4G5pcf-ht8TO3Kb-122" value="&lt;span&gt;Highlight Set of Book&lt;/span&gt;" style="whiteSpace=wrap;html=1;fillColor=#f8cecc;strokeColor=#b85450;" vertex="1" parent="1">
          <mxGeometry x="995" y="750.715" width="120" height="60" as="geometry" />
        </mxCell>
        <mxCell id="NEzJr4G5pcf-ht8TO3Kb-145" value="" style="edgeStyle=orthogonalEdgeStyle;rounded=0;orthogonalLoop=1;jettySize=auto;html=1;" edge="1" parent="1" source="NEzJr4G5pcf-ht8TO3Kb-149" target="NEzJr4G5pcf-ht8TO3Kb-151">
          <mxGeometry relative="1" as="geometry" />
        </mxCell>
        <mxCell id="NEzJr4G5pcf-ht8TO3Kb-146" value="No" style="edgeLabel;html=1;align=center;verticalAlign=middle;resizable=0;points=[];" vertex="1" connectable="0" parent="NEzJr4G5pcf-ht8TO3Kb-145">
          <mxGeometry x="-0.2766" y="1" relative="1" as="geometry">
            <mxPoint as="offset" />
          </mxGeometry>
        </mxCell>
        <mxCell id="NEzJr4G5pcf-ht8TO3Kb-147" value="" style="edgeStyle=orthogonalEdgeStyle;rounded=0;orthogonalLoop=1;jettySize=auto;html=1;" edge="1" parent="1" source="NEzJr4G5pcf-ht8TO3Kb-149" target="NEzJr4G5pcf-ht8TO3Kb-158">
          <mxGeometry relative="1" as="geometry" />
        </mxCell>
        <mxCell id="NEzJr4G5pcf-ht8TO3Kb-148" value="Yes" style="edgeLabel;html=1;align=center;verticalAlign=middle;resizable=0;points=[];" vertex="1" connectable="0" parent="NEzJr4G5pcf-ht8TO3Kb-147">
          <mxGeometry x="-0.25" relative="1" as="geometry">
            <mxPoint as="offset" />
          </mxGeometry>
        </mxCell>
        <mxCell id="NEzJr4G5pcf-ht8TO3Kb-149" value="Supplier Name exist ?" style="rhombus;whiteSpace=wrap;html=1;" vertex="1" parent="1">
          <mxGeometry x="94" y="1640" width="100" height="100" as="geometry" />
        </mxCell>
        <mxCell id="NEzJr4G5pcf-ht8TO3Kb-165" style="edgeStyle=orthogonalEdgeStyle;rounded=0;orthogonalLoop=1;jettySize=auto;html=1;exitX=1;exitY=0.5;exitDx=0;exitDy=0;entryX=0.5;entryY=0;entryDx=0;entryDy=0;" edge="1" parent="1" source="NEzJr4G5pcf-ht8TO3Kb-151" target="NEzJr4G5pcf-ht8TO3Kb-163">
          <mxGeometry relative="1" as="geometry">
            <Array as="points">
              <mxPoint x="470" y="1690" />
              <mxPoint x="470" y="2190" />
            </Array>
          </mxGeometry>
        </mxCell>
        <mxCell id="NEzJr4G5pcf-ht8TO3Kb-151" value="pop-up warning message" style="whiteSpace=wrap;html=1;fillColor=#f8cecc;strokeColor=#b85450;" vertex="1" parent="1">
          <mxGeometry x="304" y="1660" width="120" height="60" as="geometry" />
        </mxCell>
        <mxCell id="NEzJr4G5pcf-ht8TO3Kb-152" style="edgeStyle=orthogonalEdgeStyle;rounded=0;orthogonalLoop=1;jettySize=auto;html=1;entryX=0.5;entryY=0;entryDx=0;entryDy=0;" edge="1" parent="1" source="NEzJr4G5pcf-ht8TO3Kb-153" target="NEzJr4G5pcf-ht8TO3Kb-149">
          <mxGeometry relative="1" as="geometry" />
        </mxCell>
        <mxCell id="NEzJr4G5pcf-ht8TO3Kb-153" value="Start" style="ellipse;whiteSpace=wrap;html=1;fillColor=#fff2cc;strokeColor=#d6b656;" vertex="1" parent="1">
          <mxGeometry x="84" y="1490" width="120" height="80" as="geometry" />
        </mxCell>
        <mxCell id="NEzJr4G5pcf-ht8TO3Kb-154" value="" style="edgeStyle=orthogonalEdgeStyle;rounded=0;orthogonalLoop=1;jettySize=auto;html=1;" edge="1" parent="1" source="NEzJr4G5pcf-ht8TO3Kb-158" target="NEzJr4G5pcf-ht8TO3Kb-160">
          <mxGeometry relative="1" as="geometry" />
        </mxCell>
        <mxCell id="NEzJr4G5pcf-ht8TO3Kb-155" value="Yes" style="edgeLabel;html=1;align=center;verticalAlign=middle;resizable=0;points=[];" vertex="1" connectable="0" parent="NEzJr4G5pcf-ht8TO3Kb-154">
          <mxGeometry x="-0.22" y="-3" relative="1" as="geometry">
            <mxPoint as="offset" />
          </mxGeometry>
        </mxCell>
        <mxCell id="NEzJr4G5pcf-ht8TO3Kb-156" value="" style="edgeStyle=orthogonalEdgeStyle;rounded=0;orthogonalLoop=1;jettySize=auto;html=1;" edge="1" parent="1" source="NEzJr4G5pcf-ht8TO3Kb-158" target="NEzJr4G5pcf-ht8TO3Kb-162">
          <mxGeometry relative="1" as="geometry" />
        </mxCell>
        <mxCell id="NEzJr4G5pcf-ht8TO3Kb-157" value="No" style="edgeLabel;html=1;align=center;verticalAlign=middle;resizable=0;points=[];" vertex="1" connectable="0" parent="NEzJr4G5pcf-ht8TO3Kb-156">
          <mxGeometry x="-0.2444" relative="1" as="geometry">
            <mxPoint as="offset" />
          </mxGeometry>
        </mxCell>
        <mxCell id="NEzJr4G5pcf-ht8TO3Kb-158" value="Supplier Name &lt;br&gt;and Owner match one &lt;br&gt;of the entries in the Mapping List?" style="rhombus;whiteSpace=wrap;html=1;" vertex="1" parent="1">
          <mxGeometry x="59" y="1790" width="170" height="121.43" as="geometry" />
        </mxCell>
        <mxCell id="NEzJr4G5pcf-ht8TO3Kb-159" value="" style="edgeStyle=orthogonalEdgeStyle;rounded=0;orthogonalLoop=1;jettySize=auto;html=1;" edge="1" parent="1" source="NEzJr4G5pcf-ht8TO3Kb-160" target="NEzJr4G5pcf-ht8TO3Kb-163">
          <mxGeometry relative="1" as="geometry" />
        </mxCell>
        <mxCell id="NEzJr4G5pcf-ht8TO3Kb-160" value="Look up the first matching entry in the Mapping list based on Supplier Name and Owner, then auto fill Supplier Code and Set of Book" style="whiteSpace=wrap;html=1;" vertex="1" parent="1">
          <mxGeometry x="84" y="1980" width="120" height="110" as="geometry" />
        </mxCell>
        <mxCell id="NEzJr4G5pcf-ht8TO3Kb-161" style="edgeStyle=orthogonalEdgeStyle;rounded=0;orthogonalLoop=1;jettySize=auto;html=1;exitX=0.5;exitY=1;exitDx=0;exitDy=0;entryX=0.5;entryY=0;entryDx=0;entryDy=0;" edge="1" parent="1" source="NEzJr4G5pcf-ht8TO3Kb-162" target="NEzJr4G5pcf-ht8TO3Kb-163">
          <mxGeometry relative="1" as="geometry">
            <Array as="points">
              <mxPoint x="364" y="2170" />
              <mxPoint x="144" y="2170" />
            </Array>
          </mxGeometry>
        </mxCell>
        <mxCell id="NEzJr4G5pcf-ht8TO3Kb-162" value="Highlight Supplier Code and Set of Book&amp;nbsp;" style="whiteSpace=wrap;html=1;fillColor=#f8cecc;strokeColor=#b85450;" vertex="1" parent="1">
          <mxGeometry x="304" y="1820.71" width="120" height="60" as="geometry" />
        </mxCell>
        <mxCell id="NEzJr4G5pcf-ht8TO3Kb-163" value="End" style="ellipse;whiteSpace=wrap;html=1;fillColor=#fff2cc;strokeColor=#d6b656;" vertex="1" parent="1">
          <mxGeometry x="84" y="2190" width="120" height="60" as="geometry" />
        </mxCell>
        <mxCell id="NEzJr4G5pcf-ht8TO3Kb-185" value="" style="edgeStyle=orthogonalEdgeStyle;rounded=0;orthogonalLoop=1;jettySize=auto;html=1;" edge="1" parent="1" source="NEzJr4G5pcf-ht8TO3Kb-189" target="NEzJr4G5pcf-ht8TO3Kb-191">
          <mxGeometry relative="1" as="geometry" />
        </mxCell>
        <mxCell id="NEzJr4G5pcf-ht8TO3Kb-186" value="No" style="edgeLabel;html=1;align=center;verticalAlign=middle;resizable=0;points=[];" vertex="1" connectable="0" parent="NEzJr4G5pcf-ht8TO3Kb-185">
          <mxGeometry x="-0.2766" y="1" relative="1" as="geometry">
            <mxPoint as="offset" />
          </mxGeometry>
        </mxCell>
        <mxCell id="NEzJr4G5pcf-ht8TO3Kb-187" value="" style="edgeStyle=orthogonalEdgeStyle;rounded=0;orthogonalLoop=1;jettySize=auto;html=1;" edge="1" parent="1" source="NEzJr4G5pcf-ht8TO3Kb-189" target="NEzJr4G5pcf-ht8TO3Kb-198">
          <mxGeometry relative="1" as="geometry" />
        </mxCell>
        <mxCell id="NEzJr4G5pcf-ht8TO3Kb-188" value="Yes" style="edgeLabel;html=1;align=center;verticalAlign=middle;resizable=0;points=[];" vertex="1" connectable="0" parent="NEzJr4G5pcf-ht8TO3Kb-187">
          <mxGeometry x="-0.25" relative="1" as="geometry">
            <mxPoint as="offset" />
          </mxGeometry>
        </mxCell>
        <mxCell id="NEzJr4G5pcf-ht8TO3Kb-189" value="Supplier Name exist ?" style="rhombus;whiteSpace=wrap;html=1;" vertex="1" parent="1">
          <mxGeometry x="550" y="1640" width="100" height="100" as="geometry" />
        </mxCell>
        <mxCell id="NEzJr4G5pcf-ht8TO3Kb-251" style="edgeStyle=orthogonalEdgeStyle;rounded=0;orthogonalLoop=1;jettySize=auto;html=1;entryX=1;entryY=0.5;entryDx=0;entryDy=0;" edge="1" parent="1" source="NEzJr4G5pcf-ht8TO3Kb-191" target="NEzJr4G5pcf-ht8TO3Kb-242">
          <mxGeometry relative="1" as="geometry">
            <Array as="points">
              <mxPoint x="1330" y="1690" />
              <mxPoint x="1330" y="2610" />
            </Array>
          </mxGeometry>
        </mxCell>
        <mxCell id="NEzJr4G5pcf-ht8TO3Kb-191" value="pop-up warning message" style="whiteSpace=wrap;html=1;fillColor=#f8cecc;strokeColor=#b85450;" vertex="1" parent="1">
          <mxGeometry x="760" y="1660" width="120" height="60" as="geometry" />
        </mxCell>
        <mxCell id="NEzJr4G5pcf-ht8TO3Kb-192" style="edgeStyle=orthogonalEdgeStyle;rounded=0;orthogonalLoop=1;jettySize=auto;html=1;entryX=0.5;entryY=0;entryDx=0;entryDy=0;" edge="1" parent="1" source="NEzJr4G5pcf-ht8TO3Kb-193" target="NEzJr4G5pcf-ht8TO3Kb-189">
          <mxGeometry relative="1" as="geometry" />
        </mxCell>
        <mxCell id="NEzJr4G5pcf-ht8TO3Kb-193" value="Start" style="ellipse;whiteSpace=wrap;html=1;fillColor=#fff2cc;strokeColor=#d6b656;" vertex="1" parent="1">
          <mxGeometry x="540" y="1490" width="120" height="80" as="geometry" />
        </mxCell>
        <mxCell id="NEzJr4G5pcf-ht8TO3Kb-194" value="" style="edgeStyle=orthogonalEdgeStyle;rounded=0;orthogonalLoop=1;jettySize=auto;html=1;" edge="1" parent="1" source="NEzJr4G5pcf-ht8TO3Kb-198" target="NEzJr4G5pcf-ht8TO3Kb-200">
          <mxGeometry relative="1" as="geometry" />
        </mxCell>
        <mxCell id="NEzJr4G5pcf-ht8TO3Kb-195" value="Yes" style="edgeLabel;html=1;align=center;verticalAlign=middle;resizable=0;points=[];" vertex="1" connectable="0" parent="NEzJr4G5pcf-ht8TO3Kb-194">
          <mxGeometry x="-0.22" y="-3" relative="1" as="geometry">
            <mxPoint as="offset" />
          </mxGeometry>
        </mxCell>
        <mxCell id="NEzJr4G5pcf-ht8TO3Kb-196" value="" style="edgeStyle=orthogonalEdgeStyle;rounded=0;orthogonalLoop=1;jettySize=auto;html=1;entryX=0;entryY=0.5;entryDx=0;entryDy=0;" edge="1" parent="1" source="NEzJr4G5pcf-ht8TO3Kb-198" target="NEzJr4G5pcf-ht8TO3Kb-243">
          <mxGeometry relative="1" as="geometry">
            <mxPoint x="780" y="1850.705" as="targetPoint" />
          </mxGeometry>
        </mxCell>
        <mxCell id="NEzJr4G5pcf-ht8TO3Kb-197" value="No" style="edgeLabel;html=1;align=center;verticalAlign=middle;resizable=0;points=[];" vertex="1" connectable="0" parent="NEzJr4G5pcf-ht8TO3Kb-196">
          <mxGeometry x="-0.2444" relative="1" as="geometry">
            <mxPoint as="offset" />
          </mxGeometry>
        </mxCell>
        <mxCell id="NEzJr4G5pcf-ht8TO3Kb-198" value="Supplier Name &lt;br&gt;and Owner match one &lt;br&gt;of the entries in the Mapping List?" style="rhombus;whiteSpace=wrap;html=1;" vertex="1" parent="1">
          <mxGeometry x="515" y="1790" width="170" height="121.43" as="geometry" />
        </mxCell>
        <mxCell id="NEzJr4G5pcf-ht8TO3Kb-240" style="edgeStyle=orthogonalEdgeStyle;rounded=0;orthogonalLoop=1;jettySize=auto;html=1;entryX=0.5;entryY=0;entryDx=0;entryDy=0;" edge="1" parent="1" source="NEzJr4G5pcf-ht8TO3Kb-200" target="NEzJr4G5pcf-ht8TO3Kb-239">
          <mxGeometry relative="1" as="geometry" />
        </mxCell>
        <mxCell id="NEzJr4G5pcf-ht8TO3Kb-200" value="Look up the first matching entry in the Mapping list based on Supplier Name and Owner" style="whiteSpace=wrap;html=1;" vertex="1" parent="1">
          <mxGeometry x="540" y="1970" width="120" height="110" as="geometry" />
        </mxCell>
        <mxCell id="NEzJr4G5pcf-ht8TO3Kb-217" value="" style="edgeStyle=orthogonalEdgeStyle;rounded=0;orthogonalLoop=1;jettySize=auto;html=1;" edge="1" parent="1" source="NEzJr4G5pcf-ht8TO3Kb-212" target="NEzJr4G5pcf-ht8TO3Kb-216">
          <mxGeometry relative="1" as="geometry" />
        </mxCell>
        <mxCell id="NEzJr4G5pcf-ht8TO3Kb-229" value="Yes" style="edgeLabel;html=1;align=center;verticalAlign=middle;resizable=0;points=[];" vertex="1" connectable="0" parent="NEzJr4G5pcf-ht8TO3Kb-217">
          <mxGeometry x="-0.2342" y="-3" relative="1" as="geometry">
            <mxPoint as="offset" />
          </mxGeometry>
        </mxCell>
        <mxCell id="NEzJr4G5pcf-ht8TO3Kb-262" style="edgeStyle=orthogonalEdgeStyle;rounded=0;orthogonalLoop=1;jettySize=auto;html=1;exitX=0;exitY=0.5;exitDx=0;exitDy=0;entryX=0.5;entryY=0;entryDx=0;entryDy=0;" edge="1" parent="1" source="NEzJr4G5pcf-ht8TO3Kb-212" target="NEzJr4G5pcf-ht8TO3Kb-261">
          <mxGeometry relative="1" as="geometry" />
        </mxCell>
        <mxCell id="NEzJr4G5pcf-ht8TO3Kb-263" value="No" style="edgeLabel;html=1;align=center;verticalAlign=middle;resizable=0;points=[];" vertex="1" connectable="0" parent="NEzJr4G5pcf-ht8TO3Kb-262">
          <mxGeometry x="0.2532" y="-3" relative="1" as="geometry">
            <mxPoint as="offset" />
          </mxGeometry>
        </mxCell>
        <mxCell id="NEzJr4G5pcf-ht8TO3Kb-212" value="Owner is Gulf Oil Marine Limited or Gulf Oil Marine Ltd Singapore Branch?" style="rhombus;whiteSpace=wrap;html=1;" vertex="1" parent="1">
          <mxGeometry x="515" y="2216.9999999999995" width="170" height="121.43" as="geometry" />
        </mxCell>
        <mxCell id="NEzJr4G5pcf-ht8TO3Kb-219" style="edgeStyle=orthogonalEdgeStyle;rounded=0;orthogonalLoop=1;jettySize=auto;html=1;exitX=1;exitY=0.5;exitDx=0;exitDy=0;" edge="1" parent="1" source="NEzJr4G5pcf-ht8TO3Kb-216" target="NEzJr4G5pcf-ht8TO3Kb-218">
          <mxGeometry relative="1" as="geometry" />
        </mxCell>
        <mxCell id="NEzJr4G5pcf-ht8TO3Kb-221" value="No" style="edgeLabel;html=1;align=center;verticalAlign=middle;resizable=0;points=[];" vertex="1" connectable="0" parent="NEzJr4G5pcf-ht8TO3Kb-219">
          <mxGeometry x="-0.2842" relative="1" as="geometry">
            <mxPoint as="offset" />
          </mxGeometry>
        </mxCell>
        <mxCell id="NEzJr4G5pcf-ht8TO3Kb-227" style="edgeStyle=orthogonalEdgeStyle;rounded=0;orthogonalLoop=1;jettySize=auto;html=1;entryX=0.5;entryY=0;entryDx=0;entryDy=0;" edge="1" parent="1" source="NEzJr4G5pcf-ht8TO3Kb-216" target="NEzJr4G5pcf-ht8TO3Kb-242">
          <mxGeometry relative="1" as="geometry">
            <mxPoint x="600" y="2630" as="targetPoint" />
          </mxGeometry>
        </mxCell>
        <mxCell id="NEzJr4G5pcf-ht8TO3Kb-230" value="Yes" style="edgeLabel;html=1;align=center;verticalAlign=middle;resizable=0;points=[];" vertex="1" connectable="0" parent="NEzJr4G5pcf-ht8TO3Kb-227">
          <mxGeometry x="-0.2634" y="-4" relative="1" as="geometry">
            <mxPoint as="offset" />
          </mxGeometry>
        </mxCell>
        <mxCell id="NEzJr4G5pcf-ht8TO3Kb-216" value="Set of Book is SG or GOM?" style="rhombus;whiteSpace=wrap;html=1;" vertex="1" parent="1">
          <mxGeometry x="515" y="2399.999999999999" width="170" height="121.43" as="geometry" />
        </mxCell>
        <mxCell id="NEzJr4G5pcf-ht8TO3Kb-260" style="edgeStyle=orthogonalEdgeStyle;rounded=0;orthogonalLoop=1;jettySize=auto;html=1;entryX=0.5;entryY=0;entryDx=0;entryDy=0;" edge="1" parent="1" source="NEzJr4G5pcf-ht8TO3Kb-218" target="NEzJr4G5pcf-ht8TO3Kb-242">
          <mxGeometry relative="1" as="geometry">
            <Array as="points">
              <mxPoint x="830" y="2570" />
              <mxPoint x="600" y="2570" />
            </Array>
          </mxGeometry>
        </mxCell>
        <mxCell id="NEzJr4G5pcf-ht8TO3Kb-218" value="Update Set of Book to SG" style="rounded=0;whiteSpace=wrap;html=1;" vertex="1" parent="1">
          <mxGeometry x="760" y="2430.7099999999996" width="120" height="60" as="geometry" />
        </mxCell>
        <mxCell id="NEzJr4G5pcf-ht8TO3Kb-241" style="edgeStyle=orthogonalEdgeStyle;rounded=0;orthogonalLoop=1;jettySize=auto;html=1;exitX=0.5;exitY=1;exitDx=0;exitDy=0;entryX=0.5;entryY=0;entryDx=0;entryDy=0;" edge="1" parent="1" source="NEzJr4G5pcf-ht8TO3Kb-239" target="NEzJr4G5pcf-ht8TO3Kb-212">
          <mxGeometry relative="1" as="geometry" />
        </mxCell>
        <mxCell id="NEzJr4G5pcf-ht8TO3Kb-239" value="Auto fill Supplier Code" style="rounded=0;whiteSpace=wrap;html=1;" vertex="1" parent="1">
          <mxGeometry x="540" y="2120" width="120" height="60" as="geometry" />
        </mxCell>
        <mxCell id="NEzJr4G5pcf-ht8TO3Kb-242" value="End" style="ellipse;whiteSpace=wrap;html=1;fillColor=#fff2cc;strokeColor=#d6b656;" vertex="1" parent="1">
          <mxGeometry x="540" y="2580" width="120" height="60" as="geometry" />
        </mxCell>
        <mxCell id="NEzJr4G5pcf-ht8TO3Kb-245" style="edgeStyle=orthogonalEdgeStyle;rounded=0;orthogonalLoop=1;jettySize=auto;html=1;" edge="1" parent="1" source="NEzJr4G5pcf-ht8TO3Kb-243" target="NEzJr4G5pcf-ht8TO3Kb-244">
          <mxGeometry relative="1" as="geometry" />
        </mxCell>
        <mxCell id="NEzJr4G5pcf-ht8TO3Kb-243" value="&lt;span&gt;Highlight Supplier Code&lt;/span&gt;" style="whiteSpace=wrap;html=1;fillColor=#f8cecc;strokeColor=#b85450;" vertex="1" parent="1">
          <mxGeometry x="760" y="1820.72" width="120" height="60" as="geometry" />
        </mxCell>
        <mxCell id="NEzJr4G5pcf-ht8TO3Kb-246" style="edgeStyle=orthogonalEdgeStyle;rounded=0;orthogonalLoop=1;jettySize=auto;html=1;entryX=0.5;entryY=0;entryDx=0;entryDy=0;" edge="1" parent="1" source="NEzJr4G5pcf-ht8TO3Kb-244" target="NEzJr4G5pcf-ht8TO3Kb-216">
          <mxGeometry relative="1" as="geometry">
            <Array as="points">
              <mxPoint x="1030" y="2400" />
            </Array>
          </mxGeometry>
        </mxCell>
        <mxCell id="NEzJr4G5pcf-ht8TO3Kb-247" value="Yes" style="edgeLabel;html=1;align=center;verticalAlign=middle;resizable=0;points=[];" vertex="1" connectable="0" parent="NEzJr4G5pcf-ht8TO3Kb-246">
          <mxGeometry x="-0.8893" y="1" relative="1" as="geometry">
            <mxPoint as="offset" />
          </mxGeometry>
        </mxCell>
        <mxCell id="NEzJr4G5pcf-ht8TO3Kb-249" style="edgeStyle=orthogonalEdgeStyle;rounded=0;orthogonalLoop=1;jettySize=auto;html=1;" edge="1" parent="1" source="NEzJr4G5pcf-ht8TO3Kb-244" target="NEzJr4G5pcf-ht8TO3Kb-248">
          <mxGeometry relative="1" as="geometry" />
        </mxCell>
        <mxCell id="NEzJr4G5pcf-ht8TO3Kb-250" value="No" style="edgeLabel;html=1;align=center;verticalAlign=middle;resizable=0;points=[];" vertex="1" connectable="0" parent="NEzJr4G5pcf-ht8TO3Kb-249">
          <mxGeometry x="-0.2308" y="1" relative="1" as="geometry">
            <mxPoint as="offset" />
          </mxGeometry>
        </mxCell>
        <mxCell id="NEzJr4G5pcf-ht8TO3Kb-244" value="Owner is Gulf Oil Marine Limited or Gulf Oil Marine Ltd Singapore Branch or unknown(not in the Owner List)?" style="rhombus;whiteSpace=wrap;html=1;" vertex="1" parent="1">
          <mxGeometry x="945" y="1789.99" width="170" height="121.43" as="geometry" />
        </mxCell>
        <mxCell id="NEzJr4G5pcf-ht8TO3Kb-265" style="edgeStyle=orthogonalEdgeStyle;rounded=0;orthogonalLoop=1;jettySize=auto;html=1;entryX=1;entryY=0;entryDx=0;entryDy=0;" edge="1" parent="1" source="NEzJr4G5pcf-ht8TO3Kb-248" target="NEzJr4G5pcf-ht8TO3Kb-242">
          <mxGeometry relative="1" as="geometry">
            <Array as="points">
              <mxPoint x="1250" y="2589" />
            </Array>
          </mxGeometry>
        </mxCell>
        <mxCell id="NEzJr4G5pcf-ht8TO3Kb-248" value="&lt;span&gt;Highlight Set of Book&lt;/span&gt;" style="whiteSpace=wrap;html=1;fillColor=#f8cecc;strokeColor=#b85450;" vertex="1" parent="1">
          <mxGeometry x="1190" y="1820.715" width="120" height="60" as="geometry" />
        </mxCell>
        <mxCell id="NEzJr4G5pcf-ht8TO3Kb-264" style="edgeStyle=orthogonalEdgeStyle;rounded=0;orthogonalLoop=1;jettySize=auto;html=1;exitX=0.5;exitY=1;exitDx=0;exitDy=0;entryX=0;entryY=0.5;entryDx=0;entryDy=0;" edge="1" parent="1" source="NEzJr4G5pcf-ht8TO3Kb-261" target="NEzJr4G5pcf-ht8TO3Kb-242">
          <mxGeometry relative="1" as="geometry" />
        </mxCell>
        <mxCell id="NEzJr4G5pcf-ht8TO3Kb-261" value="Auto fill Set of Book" style="rounded=0;whiteSpace=wrap;html=1;" vertex="1" parent="1">
          <mxGeometry x="390" y="2360" width="120" height="60" as="geometry" />
        </mxCell>
      </root>
    </mxGraphModel>
  </diagram>
</mxfile>
